<svg width="50" height="50" viewBox="0 0 50 50" fill="none" xmlns="http://www.w3.org/2000/svg">
<path d="M34.6917 7.19806L36.0434 5.84636C38.283 3.60679 41.914 3.60679 44.1536 5.84636C46.3932 8.08593 46.3932 11.717 44.1536 13.9566L42.8019 15.3083M34.6917 7.19806C34.6917 7.19806 34.8607 10.0704 37.3951 12.6049C39.9296 15.1393 42.8019 15.3083 42.8019 15.3083M34.6917 7.19806L22.2649 19.6249C21.4232 20.4666 21.0024 20.8874 20.6404 21.3514C20.2135 21.8988 19.8474 22.4911 19.5488 23.1178C19.2956 23.649 19.1074 24.2136 18.731 25.3429L17.5258 28.9584M42.8019 15.3083L30.3751 27.7351C29.5334 28.5768 29.1126 28.9976 28.6485 29.3595C28.1012 29.7865 27.5089 30.1525 26.8822 30.4512C26.351 30.7044 25.7863 30.8926 24.6571 31.269L21.0416 32.4741M21.0416 32.4741L18.7022 33.2539C18.1465 33.4392 17.5338 33.2946 17.1196 32.8803C16.7054 32.4661 16.5608 31.8535 16.746 31.2977L17.5258 28.9584M21.0416 32.4741L17.5258 28.9584" stroke="black" stroke-width="1.5"/>
<path d="M45.8333 25C45.8333 36.506 36.5059 45.8334 25 45.8334C13.494 45.8334 4.16663 36.506 4.16663 25C4.16663 13.4941 13.494 4.16669 25 4.16669" stroke="black" stroke-width="1.5" stroke-linecap="round"/>
</svg>
