<svg width="50" height="50" viewBox="0 0 50 50" fill="none" xmlns="http://www.w3.org/2000/svg">
<path d="M34.6917 7.198L36.0434 5.8463C38.283 3.60673 41.914 3.60673 44.1536 5.8463C46.3932 8.08587 46.3932 11.7169 44.1536 13.9565L42.8019 15.3082M34.6917 7.198C34.6917 7.198 34.8607 10.0704 37.3951 12.6048C39.9296 15.1392 42.8019 15.3082 42.8019 15.3082M34.6917 7.198L22.2649 19.6248C21.4232 20.4665 21.0024 20.8874 20.6404 21.3514C20.2135 21.8988 19.8474 22.491 19.5488 23.1177C19.2956 23.6489 19.1074 24.2136 18.731 25.3428L17.5258 28.9583M42.8019 15.3082L30.3751 27.735C29.5334 28.5767 29.1126 28.9975 28.6485 29.3595C28.1012 29.7864 27.5089 30.1525 26.8822 30.4511C26.351 30.7043 25.7863 30.8925 24.6571 31.2689L21.0416 32.4741M21.0416 32.4741L18.7022 33.2539C18.1465 33.4391 17.5338 33.2945 17.1196 32.8803C16.7054 32.4661 16.5608 31.8534 16.746 31.2977L17.5258 28.9583M21.0416 32.4741L17.5258 28.9583" stroke="#0084FF" stroke-width="1.5"/>
<path d="M45.8333 25C45.8333 36.5059 36.5059 45.8333 25 45.8333C13.494 45.8333 4.16663 36.5059 4.16663 25C4.16663 13.494 13.494 4.16663 25 4.16663" stroke="#0084FF" stroke-width="1.5" stroke-linecap="round"/>
</svg>
