<svg width="26" height="28" viewBox="0 0 26 28" fill="none" xmlns="http://www.w3.org/2000/svg">
<path fill-rule="evenodd" clip-rule="evenodd" d="M13.0001 0.5625C7.64982 0.5625 3.31258 4.89974 3.31258 10.25V11.1301C3.31258 12.0013 3.05472 12.8529 2.57149 13.5778L1.13574 15.7314C-0.530634 18.231 0.7415 21.6285 3.63974 22.4189C4.58426 22.6765 5.53675 22.8944 6.49475 23.0726L6.49713 23.079C7.45837 25.6439 10.0275 27.4375 13 27.4375C15.9725 27.4375 18.5416 25.6439 19.5029 23.079L19.5052 23.0726C20.4633 22.8944 21.4158 22.6765 22.3604 22.4189C25.2587 21.6285 26.5308 18.231 24.8644 15.7314L23.4287 13.5778C22.9454 12.8529 22.6876 12.0013 22.6876 11.1301V10.25C22.6876 4.89974 18.3503 0.5625 13.0001 0.5625ZM17.2206 23.4212C14.4169 23.7562 11.5831 23.7562 8.77939 23.4212C9.66809 24.6981 11.2138 25.5625 13 25.5625C14.7862 25.5625 16.3319 24.6981 17.2206 23.4212ZM5.18758 10.25C5.18758 5.93528 8.68536 2.4375 13.0001 2.4375C17.3148 2.4375 20.8126 5.93528 20.8126 10.25V11.1301C20.8126 12.3715 21.18 13.585 21.8686 14.6178L23.3043 16.7715C24.2608 18.2062 23.5306 20.1563 21.8671 20.61C16.0618 22.1933 9.9384 22.1933 4.13308 20.61C2.46955 20.1563 1.73936 18.2062 2.69583 16.7715L4.13158 14.6178C4.82015 13.585 5.18758 12.3715 5.18758 11.1301V10.25Z" fill="black"/>
</svg>
