<svg width="25" height="24" viewBox="0 0 25 24" fill="none" xmlns="http://www.w3.org/2000/svg">
<path d="M18.5 10L13.5 10" stroke="black" stroke-width="1.5" stroke-linecap="round"/>
<path d="M2.5 6.94975C2.5 6.06722 2.5 5.62595 2.56935 5.25839C2.87464 3.64031 4.14031 2.37464 5.75839 2.06935C6.12595 2 6.56722 2 7.44975 2C7.83642 2 8.02976 2 8.21557 2.01738C9.01665 2.09229 9.77652 2.40704 10.3959 2.92051C10.5396 3.03961 10.6763 3.17633 10.9497 3.44975L11.5 4C12.3158 4.81578 12.7237 5.22367 13.2121 5.49543C13.4804 5.64471 13.7651 5.7626 14.0604 5.84678C14.5979 6 15.1747 6 16.3284 6H16.7021C19.3345 6 20.6506 6 21.5062 6.76946C21.5849 6.84024 21.6598 6.91514 21.7305 6.99383C22.5 7.84935 22.5 9.16554 22.5 11.7979V14C22.5 17.7712 22.5 19.6569 21.3284 20.8284C20.1569 22 18.2712 22 14.5 22H10.5C6.72876 22 4.84315 22 3.67157 20.8284C2.5 19.6569 2.5 17.7712 2.5 14V6.94975Z" stroke="black" stroke-width="1.5"/>
</svg>
